<?xml version="1.0" encoding="UTF-8"?>
<svg id="a" data-name="Layer 1" xmlns="http://www.w3.org/2000/svg" viewBox="0 0 213.474 455.303">
  <g>
    <rect x="61.467" width="10" height="355.273" fill="#f9bfa7" stroke-width="0"/>
    <rect x="147.083" y="1.099" width="10.31" height="355.273" fill="#f9bfa7" stroke-width="0"/>
    <rect y="335.194" width="213.474" height="120.109" rx="8.48" ry="8.48" fill="#f9bfa7" stroke-width="0"/>
  </g>
  <g>
    <g>
      <path d="M56.793,353.882c-9.365,0-18.091-4.395-23.342-11.756-4.425-6.202-6.183-14.558-4.824-22.922,1.356-8.347,5.629-15.628,11.724-19.975,5.568-3.973,12.29-6.16,18.925-6.16,8.792,0,16.613,3.896,21.459,10.688,9.341,13.094,5.975,35.625-6.669,44.646-5.024,3.584-10.997,5.479-17.271,5.479h0Z" fill="#e55c93" stroke-width="0"/>
      <path d="M59.276,295.778c7.423,0,14.588,3.013,19.253,9.553,8.444,11.837,5.49,32.644-6.037,40.867-4.664,3.327-10.199,4.975-15.699,4.975-8.094,0-16.109-3.572-21.137-10.62-8.444-11.837-5.259-30.896,6.268-39.118,5.158-3.68,11.339-5.656,17.352-5.656M59.276,290.36c-7.195,0-14.475,2.367-20.498,6.664-6.679,4.764-11.353,12.69-12.825,21.746-1.473,9.064.456,18.151,5.292,24.93,5.758,8.072,15.309,12.892,25.548,12.892,6.843,0,13.36-2.069,18.846-5.982,6.676-4.762,11.313-13.039,12.723-22.708,1.394-9.56-.582-18.934-5.421-25.717-5.361-7.515-13.986-11.824-23.664-11.824h0Z" fill="#fff" stroke-width="0"/>
    </g>
    <g>
      <path d="M141.386,353.555c-9.307,0-16.548-3.827-20.391-10.775-3.387-6.123-3.871-14.673-1.295-22.869,2.68-8.526,8.301-15.675,15.425-19.614,5.344-2.955,11.545-4.518,17.932-4.518,11.327,0,21.036,4.833,25.339,12.612,6.823,12.34-1.118,30.864-16.994,39.644-6.437,3.56-13.546,5.521-20.015,5.521h0Z" fill="#e55c93" stroke-width="0"/>
      <path d="M153.057,298.488c9.781,0,18.989,4.019,22.968,11.214,6.276,11.349-1.9,28.201-15.933,35.961-6.128,3.389-12.711,5.182-18.705,5.182-7.732,0-14.485-2.984-18.02-9.377-6.276-11.349-.964-31.041,13.069-38.802,5.137-2.841,10.974-4.179,16.621-4.179M153.057,293.07c-6.844,0-13.499,1.679-19.243,4.856-7.726,4.272-13.812,11.99-16.698,21.173-2.835,9.023-2.285,18.132,1.509,24.993,4.278,7.736,12.574,12.173,22.762,12.173,6.921,0,14.495-2.081,21.327-5.859,7.786-4.305,14.306-11.277,17.89-19.127,3.892-8.527,3.952-17.347.163-24.199-4.779-8.642-15.396-14.01-27.709-14.01h0Z" fill="#fff" stroke-width="0"/>
    </g>
    <g>
      <path d="M46.268,276.133c-1.801,0-3.559-.155-5.225-.463-14.663-2.704-22.814-15.915-19.825-32.128,3.059-16.589,15.48-30.086,27.689-30.086,1.019,0,2.039.093,3.033.276,13.339,2.46,27.513,22.098,24.288,39.584-2.762,14.979-17.161,22.816-29.958,22.816h-.001Z" fill="#e55c93" stroke-width="0"/>
      <path d="M48.907,216.166c.848,0,1.696.075,2.542.231,11.999,2.213,25.037,20.579,22.115,36.429-2.555,13.855-15.949,20.598-27.295,20.598-1.633,0-3.225-.14-4.735-.418-11.999-2.213-20.574-13.123-17.652-28.973,2.717-14.733,13.835-27.867,25.025-27.867M48.907,210.747c-6.916,0-13.932,3.638-19.755,10.244-5.326,6.042-9.09,13.876-10.599,22.059-1.642,8.905-.248,17.052,4.032,23.56,4.059,6.172,10.439,10.336,17.966,11.724,1.828.337,3.752.508,5.717.508,13.918,0,29.593-8.599,32.623-25.034,1.595-8.651-.675-18.579-6.23-27.237-5.364-8.361-12.927-14.156-20.231-15.503-1.156-.213-2.341-.321-3.524-.321h0Z" fill="#fff" stroke-width="0"/>
    </g>
    <g>
      <path d="M158.854,278.144c-12.464,0-22.968-9.16-26.76-23.334-2.031-7.596-.536-16.136,4.211-24.046,5.536-9.226,14.788-16.308,24.144-18.483,1.266-.294,2.552-.443,3.823-.443,6.331,0,12.559,3.712,17.536,10.452,4.188,5.67,7.164,13.101,7.961,19.878,1.139,9.673-1.285,18.644-6.826,25.259-5.382,6.426-13.175,10.116-22.536,10.67-.522.031-1.038.047-1.55.047h-.003Z" fill="#e55c93" stroke-width="0"/>
      <path d="M164.273,214.547c11.99,0,21.358,15.627,22.807,27.938,2.035,17.294-8.198,31.805-26.832,32.907-.469.028-.933.041-1.393.041-11.961,0-20.912-9.252-24.141-21.324-4.435-16.579,10.4-35.482,26.351-39.19,1.088-.253,2.159-.373,3.21-.373M164.273,209.129c-1.478,0-2.971.173-4.437.514-10.046,2.335-19.953,9.895-25.854,19.728-5.128,8.545-6.728,17.828-4.504,26.139,4.118,15.395,15.649,25.343,29.376,25.343.566,0,1.143-.017,1.714-.051,10.124-.599,18.579-4.622,24.452-11.633,6.025-7.193,8.668-16.894,7.441-27.316-1.615-13.719-12.309-32.723-28.188-32.723h0Z" fill="#fff" stroke-width="0"/>
    </g>
    <g>
      <path d="M108.975,343.519c-36.437-.003-66.879-36.276-69.306-82.579-1.154-22.029,4.274-43.322,15.287-59.957,2.914-4.402,2.653-10.238-.649-14.523-6.869-8.915-13.995-20.023-14.771-34.821-.239-4.558,1.179-9.937,2.429-14.684.449-1.703.873-3.312,1.174-4.718.503-2.344-.262-4.761-2.047-6.467-3.31-3.163-11.009-11.576-11.026-21.364-.024-13.627,10.025-24.094,24.436-25.453.895-.084,1.83-.127,2.779-.127,6.717,0,13.635,2.037,18.054,5.316,1.236.917,2.736,1.423,4.223,1.423.848,0,1.674-.159,2.456-.473,6.711-2.692,13.807-4.25,21.09-4.632,2.123-.111,4.182-.167,6.118-.167,10.954,0,19.769,1.792,26.946,5.48.503.258,1.07.395,1.641.395.922,0,1.792-.342,2.45-.962,5.122-4.827,10.837-7.708,17.471-8.807,1.787-.296,3.594-.446,5.369-.446,14.434,0,24.597,9.164,25.892,23.348.957,10.485-5.202,24.116-13.448,29.766-.727.498-.793,1.156.169,4.552.35,1.235.711,2.513.897,3.869.253,1.837.431,3.714.528,5.577.788,15.027-7.671,31.465-12.784,39.926-4.828,7.99-4.444,16.795,1.174,26.919,7.264,13.09,8.562,27.645,9.415,43.94,2.486,47.446-25.832,87.638-63.127,89.593-.942.05-1.896.075-2.835.075h-.005Z" fill="#e55c93" stroke-width="0"/>
      <path d="M163.099,78.662c11.388,0,21.898,6.69,23.194,20.885.871,9.543-4.974,22.278-12.282,27.285-3.518,2.41-.666,6.802-.085,11.026.242,1.76.412,3.544.507,5.35.687,13.111-6.083,27.933-12.397,38.383-5.82,9.631-4.337,19.796,1.123,29.635,6.927,12.482,8.229,26.533,9.079,42.767,2.412,46.029-24.703,84.867-60.563,86.746-.904.047-1.801.071-2.699.071-34.704,0-64.249-35.142-66.6-80.011-1.166-22.239,4.564-42.796,14.84-58.319,3.586-5.416,3.203-12.527-.761-17.672-7.555-9.805-13.515-20.013-14.212-33.31-.299-5.704,2.402-13.361,3.546-18.69.705-3.282-.397-6.675-2.824-8.994-5.176-4.947-10.177-12.256-10.189-19.411-.022-12.665,9.373-21.562,21.981-22.751.819-.077,1.664-.115,2.524-.115,5.818,0,12.336,1.737,16.441,4.783,1.719,1.275,3.77,1.956,5.838,1.956,1.168,0,2.342-.217,3.465-.667,6.284-2.52,13.084-4.066,20.223-4.44,1.995-.105,3.99-.164,5.977-.164,9.133,0,18.072,1.258,25.707,5.181.909.467,1.897.695,2.879.695,1.568,0,3.121-.581,4.308-1.7,4.434-4.179,9.52-7.023,16.056-8.106,1.644-.272,3.294-.41,4.926-.41M163.099,73.244c-1.924,0-3.879.162-5.812.483-7.183,1.19-13.36,4.3-18.886,9.508-.207.195-.46.225-.592.225-.144,0-.279-.032-.403-.096-7.569-3.889-16.788-5.78-28.183-5.78-1.983,0-4.09.058-6.261.171-7.581.397-14.968,2.02-21.956,4.822-.46.185-.947.278-1.448.278-.91,0-1.836-.316-2.609-.889-4.863-3.608-12.4-5.85-19.67-5.85-1.033,0-2.054.047-3.033.139-15.859,1.496-26.917,13.074-26.891,28.155.019,10.832,8.303,19.916,11.864,23.319,1.099,1.05,1.574,2.523,1.27,3.94-.289,1.345-.705,2.925-1.145,4.597-1.301,4.938-2.775,10.534-2.514,15.514.815,15.541,8.207,27.088,15.331,36.333,2.595,3.368,2.81,7.939.535,11.374-11.331,17.115-16.918,38.989-15.733,61.594,2.502,47.745,34.133,85.146,72.011,85.146.989,0,1.993-.026,2.982-.078,19.049-.998,36.377-11.342,48.793-29.126,12.126-17.369,18.127-39.854,16.898-63.315-.872-16.638-2.208-31.516-9.752-45.112-5.105-9.2-5.506-17.117-1.223-24.204,5.273-8.726,13.996-25.717,13.171-41.469-.101-1.936-.286-3.889-.55-5.804-.212-1.544-.618-2.976-.975-4.239-.177-.625-.417-1.473-.538-2.084,8.601-6.411,14.917-20.7,13.909-31.742-.74-8.108-4.121-14.839-9.777-19.467-5-4.091-11.681-6.344-18.812-6.344h0Z" fill="#fff" stroke-width="0"/>
    </g>
    <path d="M41.054,103.183c.292-8.608,7.746-13.527,14.456-10.571,3.215,1.416,6.738,3.003,4.129,7.075-.526.822-1.302,1.744-2.38,2.787-2.448,2.368-5.949,7.816-7.678,11.791-1.295,2.977-4.195,2.294-5.448-.643-1.424-3.34-3.184-7.364-3.079-10.439Z" fill="#bc1964" stroke-width="0"/>
    <path d="M175.301,100.749c-1.362-3.366-4.255-5.379-8.829-4.674-2.519.388-4.141,2.599-4.917,4.461-.534,1.282.587,4.103,2.601,5.716s3.463,3.206,6.169,6.422c1.559,1.853,3.768-.685,4.809-3.305.665-1.672.962-6.657.168-8.62Z" fill="#bc1964" stroke-width="0"/>
    <path d="M162.802,140.918c1.199,20.169-14.149,39.49-25.919,46.009-16.121,8.928-16.809,1.027-11.83-4.028,6.773-6.875,12.764-12.114,12.138-27.767-1.057-26.399-34.128-27.422-50.709-24.142s-21.665,13.1-26.057,10.265c-4.392-2.834-4.78-8.419-1.629-17.594,5.522-16.083,15.994-29.389,46.355-30.98,30.361-1.591,55.975,20.016,57.653,48.237Z" fill="#bc1964" stroke-width="0"/>
    <path d="M59.963,154.952c.553-4.79,9.236-10.686,19.681-13.436,12.353-3.252,30.025-3.026,36.587,1.96,11.15,8.473,12.744,15.399,10.789,22.577-3.736,13.716-22.113,25.223-36.798,24.796-14.685-.427-31.995-20.853-30.259-35.897Z" fill="#bc1964" stroke-width="0"/>
    <path d="M97.648,278.933c-4.263-30.448,13.582-66.3,2.175-72.052-7.262-3.662-25.184-8.484-28.751,15.738-1.508,10.241-7.908,23.521-8.088,34.835-.679,42.742,19.992,76.227,40.396,71.267,70.564-17.156.703-3.827-5.731-49.788Z" fill="#bc1964" stroke-width="0"/>
    <path d="M23.882,244.033c-2.923,15.85,5.653,26.76,17.652,28.973s29.107-4.33,32.029-20.18c2.923-15.85-10.116-34.216-22.114-36.429-11.999-2.213-24.644,11.786-27.567,27.636Z" fill="#e55c93" stroke-width="0"/>
    <path d="M134.712,254.109c3.354,12.537,12.877,22.032,25.535,21.283,18.635-1.103,28.868-15.613,26.832-32.907-1.576-13.391-12.518-30.703-26.017-27.565-15.951,3.708-30.786,22.611-26.351,39.19Z" fill="#e55c93" stroke-width="0"/>
    <path d="M58.863,246.215c-.585,9.465-3.19,18.031-10.83,18.611-8.602.653-18.632-4.263-15.773-22.143,1.56-9.757,8.559-20.099,16.205-16.321,7.877,3.892,10.649,15.781,10.398,19.854Z" fill="#bc1964" stroke-width="0"/>
    <path d="M178.03,244.494c-1.104-14.198-7.37-20.645-14.56-19.014-7.19,1.631-10.977,10.417-10.928,20.497.036,7.521,4.987,17.205,11.008,17.667,6.493.499,15.584-4.952,14.48-19.15Z" fill="#bc1964" stroke-width="0"/>
    <path d="M161.686,285.009c.572-3.766,4.34-11.385-2.092-11.245s-16.047-14.439-14.367,11.598c.679,10.531,9.372,15.35,12.962,10.802,3.59-4.548,2.925-7.388,3.497-11.154Z" fill="#bc1964" stroke-width="0"/>
    <path d="M35.656,340.553c8.444,11.837,25.309,13.868,36.836,5.645,11.527-8.223,14.481-29.03,6.037-40.867-8.444-11.837-25.078-12.119-36.605-3.896s-14.712,27.281-6.268,39.118Z" fill="#e55c93" stroke-width="0"/>
    <path d="M123.366,341.469c6.276,11.349,22.692,11.955,36.725,4.195,14.033-7.76,22.209-24.613,15.933-35.961-6.276-11.349-25.556-14.795-39.589-7.035-14.033,7.76-19.345,27.453-13.069,38.802Z" fill="#e55c93" stroke-width="0"/>
    <path d="M65.021,323.649c-1.304-6.174-6.738-13.334-12.517-14.036-5.779-.702-12.851,4.054-11.114,14.88,2.138,13.318,10.208,19.427,17.79,16.323s7.144-10.992,5.84-17.166Z" fill="#bc1964" stroke-width="0"/>
    <path d="M163.265,329.935c4.519-7.347,1.263-15.908-4.96-19.076s-16.777,4.374-20.165,10.841c-3.388,6.468-4.202,14.142,1.491,17.832,5.694,3.69,19.115-2.25,23.634-9.598Z" fill="#bc1964" stroke-width="0"/>
    <ellipse cx="89.616" cy="157.028" rx="11.736" ry="8.37" transform="translate(-31.078 22.411) rotate(-12.165)" fill="#e55c93" stroke-width="0"/>
    <path d="M88.633,152.469c-.491-2.28-3.03-3.615-5.888-2.414s-5.724,3.577-5.195,6.221,4.377,2.693,7.228,1.362,4.346-2.889,3.855-5.169Z" fill="#fff" stroke-width="0"/>
    <path d="M156.231,218.221c-1.329,2.375-4.956,3.966-6.601,5.693-9.264,9.725-11.699,6.97-6.989-3.17,1.254-2.7,5.533-7.299,9.333-7.498s5.767,2.277,4.257,4.975Z" fill="#fff" stroke-width="0"/>
    <path d="M156.513,299.394c.862,2.314-3.22,2.568-8.006,4.352s-13.117,7.593-13.98,5.28,5.963-8.857,10.749-10.641c4.787-1.784,10.374-1.305,11.237,1.009Z" fill="#fff" stroke-width="0"/>
    <path d="M70.735,234.41c-1.711,2.199-7.087-6.317-10.972-9.341-3.885-3.023-5.303-4.342-3.591-6.541s6.034-.072,9.919,2.951,6.355,10.731,4.644,12.93Z" fill="#fff" stroke-width="0"/>
    <path d="M78.076,305.354c-.576,1.961-7.78-3.079-11.345-4.571s-9.325-2.359-8.749-4.319,5.701-2.951,10.377-1.577c4.676,1.374,10.293,8.506,9.717,10.467Z" fill="#fff" stroke-width="0"/>
    <path d="M160.679,94.112c-3.698,1.448-6.718,2.998-8.734,1.634s-.953-3.478.873-5.417c3.236-3.438,10.926-4.419,13.017-3.116,6.952,4.331-.045,4.899-5.155,6.9Z" fill="#fff" stroke-width="0"/>
    <path d="M52.249,91.745c.122,1.893,4.417,3.898,6.347,4.275,2.831.552,6.257-1.949,4.83-5.202-1.427-3.253-4.54-2.748-6.184-2.662s-5.164.94-4.993,3.589Z" fill="#fff" stroke-width="0"/>
    <path d="M137.989,199.598c.945,3.158,12.556-1.754,18.721-3.599,6.165-1.845,7.791-5.205,6.939-8.389-.526-1.967-.685-7.294-2.497-4.14-2.886,5.025-7.345,7.224-9.224,8.321-5.898,3.444-14.884,4.649-13.939,7.806Z" fill="#fff" stroke-width="0"/>
    <path d="M67.488,196.857c-1.046,1.626-6.21.099-9.937-2.298s-6.71-11.879-5.665-13.505,3.525,2.342,7.049,6.531,9.599,7.645,8.553,9.271Z" fill="#fff" stroke-width="0"/>
    <path d="M47.537,125.585c.427-2.053-.683-4.019-2.479-4.393s-3.598.988-4.025,3.04.927,11.457,2.723,11.83,3.354-8.425,3.781-10.478Z" fill="#fff" stroke-width="0"/>
    <path d="M71.206,88.341c.126,2.402,2.428,3.031,4.83,2.905,1.423-.075,3.839-2.313,7.95-3.96,4.111-1.647,3.379-2.835,3.328-3.814-.082-1.567-4.204.153-7.605.399-1.812.131-3.294-1.367-4.129-1.324-1.456.076-6.845,1.151-4.419,2.193,2.072.89-.005,2.654.045,3.601Z" fill="#fff" stroke-width="0"/>
    <path d="M143.849,88.883c-.061.897-.62,2.348-2.864,2.465s-3.777-2.192-6.25-3.27c-2.06-.898,3.272-4.378,5.516-4.496,1.553-.081,7.711-.986,3.699,1.963-2.033,1.495-.04,2.44-.101,3.337Z" fill="#fff" stroke-width="0"/>
    <path d="M176.383,124.81c2.595-2.431.675,7.285-.833,7.893-.904.365-2.333,2.085-3.367-1.623-.302-1.083-.996-2.947-1.528-4.267-1.33-3.298-3.478-6.57-1.97-7.178s5.266,7.454,7.698,5.175Z" fill="#fff" stroke-width="0"/>
    <path d="M144.854,259.703c-2.731,3.746,2.149,11.184,6.888,13.638,7.641,3.957,10.699,2.764,11.666,1.569,2.32-2.865-5.048-1.978-10.233-6.072-5.185-4.093-7.749-9.92-8.321-9.135Z" fill="#fff" stroke-width="0"/>
    <circle cx="43.071" cy="276.133" r="2.959" fill="#fff" stroke-width="0"/>
    <circle cx="51.782" cy="273.703" r="2.959" fill="#fff" stroke-width="0"/>
    <circle cx="175.739" cy="91.339" r="2.959" fill="#fff" stroke-width="0"/>
    <path d="M132.775,204.942c0,12.663-27.382,6.969-30.358,24.239-3.765,21.853-31.901-1.67-29.69-14.139,3.459-19.509,10.515-15.773,34.313-13.698,15.682,1.368,25.735-9.066,25.735,3.597Z" fill="#bc1964" stroke-width="0"/>
  </g>
</svg>