<?xml version="1.0" encoding="UTF-8"?>
<svg id="b" data-name="Layer 2" xmlns="http://www.w3.org/2000/svg" viewBox="0 0 355.011 575.239">
  <g id="c" data-name="Layer 1">
    <g>
      <g>
        <path d="M78.989,569.738c-19.012,0-36.727-8.922-47.388-23.865-18.735-26.264-11.927-68.587,14.009-87.088,11.305-8.064,24.949-12.506,38.42-12.506,17.849,0,33.727,7.909,43.565,21.699,18.963,26.583,12.13,72.325-13.54,90.638-10.201,7.276-22.326,11.122-35.066,11.122Z" fill="#e55c93" stroke-width="0"/>
        <path d="M84.031,451.779c15.069,0,29.616,6.117,39.087,19.393,17.143,24.031,11.145,66.272-12.257,82.966-9.468,6.754-20.706,10.1-31.872,10.1-16.432,0-32.704-7.252-42.91-21.56-17.143-24.031-10.676-62.722,12.726-79.416,10.472-7.471,23.021-11.483,35.227-11.483M84.031,440.779c-14.606,0-29.385,4.804-41.615,13.528-13.559,9.673-23.049,25.764-26.036,44.147-2.99,18.401.926,36.849,10.744,50.612,11.691,16.388,31.08,26.172,51.866,26.172,13.892,0,27.122-4.2,38.26-12.145,13.553-9.668,22.967-26.471,25.829-46.1,2.83-19.409-1.182-38.438-11.006-52.21-10.883-15.256-28.393-24.005-48.042-24.005h0Z" fill="#fff" stroke-width="0"/>
      </g>
      <g>
        <path d="M250.727,569.074c-18.895,0-33.596-7.77-41.396-21.875-6.875-12.433-7.858-29.789-2.629-46.429,5.439-17.31,16.852-31.823,31.312-39.82,10.851-5.999,23.439-9.171,36.406-9.171,22.996,0,42.707,9.812,51.441,25.604,6.84,12.369,6.649,28.473-.521,44.182-6.796,14.888-19.18,28.118-33.978,36.301-13.068,7.227-27.501,11.208-40.635,11.208h0Z" fill="#e55c93" stroke-width="0"/>
        <path d="M274.42,457.28c19.858,0,38.55,8.16,46.628,22.766,12.741,23.04-3.857,57.253-32.346,73.007-12.442,6.88-25.805,10.521-37.974,10.521-15.697,0-29.407-6.058-36.584-19.036-12.741-23.04-1.957-63.019,26.533-78.773,10.428-5.767,22.279-8.484,33.744-8.484M274.42,446.28c-13.895,0-27.404,3.409-39.067,9.858-15.685,8.674-28.04,24.34-33.899,42.983-5.756,18.317-4.64,36.811,3.063,50.74,8.685,15.706,25.528,24.713,46.21,24.713,14.05,0,29.427-4.224,43.297-11.895,15.806-8.741,29.044-22.894,36.318-38.83,7.902-17.311,8.023-35.217.331-49.127-9.702-17.544-31.257-28.443-56.254-28.443h0Z" fill="#fff" stroke-width="0"/>
      </g>
      <g>
        <path d="M57.623,411.897c-3.657,0-7.226-.316-10.608-.939-13.792-2.544-25.467-10.149-32.876-21.415-7.894-12.005-10.443-27.154-7.372-43.811,6.21-33.679,31.428-61.078,56.213-61.078,2.068,0,4.14.189,6.158.561,13.36,2.463,27.356,13.317,37.439,29.035,10.53,16.414,14.856,35.122,11.868,51.327-5.607,30.41-34.839,46.32-60.818,46.32h-.004Z" fill="#e55c93" stroke-width="0"/>
        <path d="M62.981,290.154c1.721,0,3.444.153,5.16.469,24.359,4.492,50.829,41.779,44.896,73.956-5.187,28.128-32.379,41.818-55.413,41.818-3.316,0-6.546-.284-9.612-.849-24.359-4.492-41.769-26.642-35.836-58.819,5.516-29.911,28.087-56.575,50.805-56.575M62.981,279.154c-14.04,0-28.283,7.386-40.105,20.797-10.812,12.266-18.454,28.17-21.517,44.783-3.334,18.079-.503,34.618,8.185,47.83,8.24,12.531,21.194,20.984,36.474,23.801,3.712.684,7.617,1.031,11.607,1.031,14.401,0,28.797-4.344,40.534-12.231,13.874-9.323,22.76-22.668,25.696-38.592,3.239-17.564-1.371-37.718-12.647-55.295-10.889-16.974-26.243-28.74-41.071-31.474-2.346-.433-4.753-.652-7.154-.652h0Z" fill="#fff" stroke-width="0"/>
      </g>
      <g>
        <path d="M286.187,415.977c-25.302,0-46.625-18.595-54.324-47.37-4.125-15.421-1.089-32.757,8.548-48.816,11.24-18.729,30.022-33.108,49.017-37.523,2.568-.598,5.181-.9,7.763-.9,12.852,0,25.494,7.536,35.6,21.22,8.501,11.511,14.543,26.598,16.162,40.356,2.312,19.639-2.61,37.851-13.859,51.28-10.927,13.045-26.747,20.535-45.751,21.659-1.052.062-2.112.094-3.154.094Z" fill="#e55c93" stroke-width="0"/>
        <path d="M297.189,286.867c24.343,0,43.359,31.725,46.301,56.719,4.132,35.11-16.643,64.568-54.474,66.807-.952.056-1.895.084-2.829.084-24.283,0-42.454-18.782-49.011-43.292-9.004-33.657,21.113-72.033,53.496-79.561,2.209-.514,4.382-.757,6.517-.757M297.189,275.867c-3,0-6.031.351-9.008,1.043-20.395,4.741-40.507,20.088-52.487,40.051-10.411,17.348-13.658,36.194-9.144,53.067,8.361,31.254,31.77,51.449,59.637,51.449,1.15,0,2.32-.035,3.478-.103,20.553-1.216,37.719-9.383,49.642-23.618,12.232-14.603,17.597-34.297,15.106-55.456-1.726-14.666-8.156-30.734-17.201-42.981-11.169-15.123-25.383-23.452-40.024-23.452h0Z" fill="#fff" stroke-width="0"/>
      </g>
      <g>
        <path d="M184.926,548.698c-35.801-.002-70.057-17.417-96.456-49.035-26.165-31.338-41.878-73.461-44.245-118.611-2.344-44.722,8.678-87.949,31.034-121.721,5.916-8.936,5.387-20.785-1.316-29.484-24.851-32.251-29.104-53.834-29.988-70.692-.485-9.251,2.392-20.171,4.93-29.806.912-3.459,1.772-6.727,2.385-9.581,1.021-4.759-.532-9.667-4.155-13.129-20.169-19.274-22.374-36.753-22.386-43.373-.048-27.665,20.352-48.914,49.609-51.673,1.817-.171,3.715-.258,5.642-.258,13.637,0,27.682,4.135,36.653,10.792,2.51,1.862,5.554,2.888,8.574,2.888,1.721,0,3.399-.323,4.987-.96,13.623-5.464,28.028-8.627,42.814-9.403,4.311-.226,8.491-.34,12.422-.34,22.239,0,40.132,3.639,54.704,11.126,1.022.525,2.174.803,3.332.803,1.87,0,3.637-.693,4.973-1.953,10.397-9.8,21.999-15.649,35.469-17.881,3.628-.601,7.295-.905,10.899-.905,29.303,0,49.936,18.605,52.564,47.399,1.943,21.285-10.56,48.958-27.303,60.43-1.475,1.011-1.609,2.346.344,9.241.71,2.508,1.445,5.102,1.823,7.856.514,3.73.874,7.54,1.072,11.322,1.599,30.511-15.574,63.88-25.953,81.056-9.803,16.222-9.024,34.098,2.381,54.65,14.747,26.575,17.382,56.122,19.116,89.204,2.433,46.412-9.402,90.841-33.322,125.103-24.215,34.684-57.895,54.851-94.836,56.786-1.915.101-3.854.151-5.763.151h-.004Z" fill="#e55c93" stroke-width="0"/>
        <path d="M294.807,11c23.12,0,44.455,13.581,47.087,42.4,1.769,19.374-10.097,45.228-24.934,55.392-7.141,4.893-1.353,13.808-.173,22.384.491,3.572.836,7.194,1.029,10.861,1.395,26.617-12.349,56.709-25.168,77.923-11.815,19.552-8.805,40.189,2.279,60.164,14.062,25.34,16.705,53.867,18.432,86.823,4.897,93.446-50.151,172.293-122.953,176.108-1.835.096-3.657.144-5.479.144-70.455,0-130.435-71.344-135.208-162.435-2.366-45.148,9.265-86.882,30.128-118.396,7.28-10.996,6.503-25.431-1.546-35.877-15.338-19.906-27.438-40.629-28.852-67.624-.607-11.581,4.876-27.124,7.199-37.944,1.43-6.663-.806-13.551-5.733-18.26-10.509-10.043-20.66-24.882-20.685-39.407-.045-25.711,19.028-43.774,44.625-46.188,1.663-.157,3.378-.234,5.124-.234,11.811,0,25.044,3.526,33.377,9.71,3.489,2.589,7.653,3.971,11.851,3.971,2.372,0,4.755-.441,7.034-1.355,12.758-5.117,26.562-8.255,41.056-9.015,4.049-.212,8.1-.333,12.134-.333,18.542,0,36.689,2.553,52.189,10.518,1.845.948,3.851,1.411,5.846,1.411,3.184,0,6.336-1.18,8.746-3.451,9.002-8.484,19.326-14.258,32.596-16.457,3.337-.553,6.687-.832,10-.832M294.807,0c-3.905,0-7.875.33-11.799.98-14.582,2.416-27.124,8.731-38.342,19.304-.421.397-.934.456-1.201.456-.292,0-.567-.066-.819-.195-15.366-7.895-34.081-11.734-57.216-11.734-4.026,0-8.303.117-12.71.348-15.391.807-30.388,4.101-44.575,9.79-.934.375-1.923.564-2.939.564-1.847,0-3.728-.641-5.296-1.804-9.872-7.325-25.173-11.876-39.932-11.876-2.098,0-4.17.095-6.157.282-32.197,3.037-54.646,26.542-54.592,57.159.015,8.649,2.656,17.666,7.849,26.801,4.089,7.193,9.704,14.295,16.237,20.539,2.231,2.132,3.195,5.122,2.578,7.998-.586,2.73-1.431,5.938-2.325,9.333-2.64,10.024-5.633,21.386-5.103,31.495,1.654,31.55,16.661,54.992,31.124,73.762,5.268,6.837,5.704,16.116,1.087,23.091-23.002,34.746-34.346,79.154-31.941,125.044,2.428,46.331,18.592,89.605,45.515,121.851,27.463,32.893,63.218,51.008,100.678,51.008,2.009,0,4.046-.053,6.055-.159,19.647-1.03,38.415-6.948,55.785-17.591,16.549-10.141,31.109-24.116,43.273-41.539,24.618-35.261,36.801-80.91,34.305-128.538-1.77-33.778-4.482-63.983-19.799-91.585-10.365-18.678-11.177-34.751-2.483-49.137,10.705-17.715,28.415-52.209,26.739-84.188-.206-3.929-.581-7.894-1.116-11.783-.431-3.135-1.254-6.042-1.981-8.606-.359-1.268-.847-2.99-1.093-4.23,17.461-13.015,30.285-42.024,28.238-64.442-1.503-16.46-8.367-30.126-19.849-39.52-10.151-8.305-23.715-12.879-38.192-12.879h0Z" fill="#fff" stroke-width="0"/>
      </g>
      <path d="M47.037,60.781c.593-17.476,15.727-27.461,29.347-21.461,6.528,2.876,13.678,6.097,8.383,14.364-1.068,1.668-2.643,3.541-4.832,5.658-4.969,4.807-12.077,15.868-15.588,23.938-2.629,6.043-8.516,4.658-11.06-1.306-2.892-6.78-6.463-14.951-6.251-21.193Z" fill="#bc1964" stroke-width="0"/>
      <path d="M319.578,55.841c-2.764-6.834-8.638-10.92-17.925-9.489-5.114.788-8.407,5.276-9.983,9.056-1.085,2.602,1.192,8.329,5.28,11.604s7.031,6.509,12.524,13.037c3.165,3.762,7.649-1.391,9.763-6.709,1.349-3.395,1.953-13.515.341-17.5Z" fill="#bc1964" stroke-width="0"/>
      <path d="M294.203,137.39c2.434,40.946-28.724,80.171-52.62,93.405-32.728,18.126-34.125,2.084-24.017-8.177,13.749-13.957,25.914-24.593,24.641-56.371-2.146-53.595-69.285-55.671-102.948-49.012-33.663,6.659-43.983,26.594-52.899,20.84s-9.703-17.091-3.308-35.719c11.21-32.652,32.469-59.664,94.107-62.894s113.638,40.636,117.043,97.928Z" fill="#bc1964" stroke-width="0"/>
      <path d="M85.425,165.881c1.122-9.724,18.75-21.695,39.956-27.278,25.079-6.602,60.955-6.143,74.278,3.98,22.637,17.201,25.873,31.261,21.903,45.835-7.585,27.845-44.893,51.206-74.706,50.339-29.813-.867-64.955-42.336-61.431-72.876Z" fill="#bc1964" stroke-width="0"/>
      <path d="M161.932,417.581c-8.654-61.814,27.574-134.599,4.415-146.276-14.743-7.433-51.128-17.223-58.368,31.951-3.061,20.792-16.055,47.751-16.421,70.72-1.379,86.773,40.587,154.753,82.009,144.682,143.256-34.829,1.428-7.769-11.635-101.078Z" fill="#bc1964" stroke-width="0"/>
      <path d="M12.176,346.728c-5.934,32.178,11.476,54.327,35.836,58.819,24.359,4.492,59.091-8.791,65.025-40.968,5.934-32.178-20.537-69.464-44.896-73.956-24.359-4.492-50.031,23.928-55.965,56.105Z" fill="#e55c93" stroke-width="0"/>
      <path d="M237.176,367.185c6.809,25.453,26.142,44.728,51.84,43.208,37.831-2.238,58.606-31.697,54.474-66.807-3.199-27.185-25.414-62.332-52.818-55.962-32.382,7.528-62.5,45.904-53.496,79.561Z" fill="#e55c93" stroke-width="0"/>
      <path d="M83.193,351.158c-1.187,19.215-6.475,36.605-21.986,37.782-17.464,1.326-37.825-8.654-32.021-44.954,3.167-19.808,17.376-40.803,32.898-33.135,15.991,7.9,21.62,32.038,21.109,40.307Z" fill="#bc1964" stroke-width="0"/>
      <path d="M325.118,347.663c-2.242-28.824-14.962-41.913-29.558-38.602-14.597,3.312-22.284,21.149-22.186,41.612.073,15.269,10.124,34.928,22.348,35.867,13.183,1.012,31.639-10.053,29.397-38.877Z" fill="#bc1964" stroke-width="0"/>
      <path d="M291.938,429.915c1.161-7.645,8.81-23.112-4.247-22.83s-32.578-29.313-29.168,23.545c1.379,21.38,19.026,31.163,26.316,21.93s5.939-15,7.1-22.645Z" fill="#bc1964" stroke-width="0"/>
      <path d="M36.079,542.679c17.143,24.031,51.381,28.154,74.782,11.46,23.402-16.694,29.399-58.935,12.257-82.966-17.143-24.031-50.912-24.604-74.314-7.91-23.402,16.694-29.868,55.385-12.726,79.416Z" fill="#e55c93" stroke-width="0"/>
      <path d="M214.144,544.538c12.741,23.04,46.068,24.27,74.558,8.516,28.49-15.755,45.087-49.967,32.347-73.007-12.741-23.04-51.882-30.037-80.372-14.282-28.49,15.755-39.274,55.734-26.533,78.773Z" fill="#e55c93" stroke-width="0"/>
      <path d="M95.694,508.361c-2.648-12.534-13.678-27.07-25.411-28.495-11.732-1.426-26.09,8.23-22.563,30.208,4.34,27.037,20.723,39.439,36.117,33.137,15.393-6.302,14.504-22.316,11.857-34.85Z" fill="#bc1964" stroke-width="0"/>
      <path d="M295.143,521.121c9.174-14.916,2.564-32.295-10.07-38.727s-34.06,8.879-40.939,22.009c-6.879,13.13-8.531,28.711,3.028,36.202,11.559,7.491,38.807-4.568,47.981-19.484Z" fill="#bc1964" stroke-width="0"/>
      <ellipse cx="145.625" cy="170.096" rx="23.826" ry="16.991" transform="translate(-32.574 34.507) rotate(-12.165)" fill="#e55c93" stroke-width="0"/>
      <path d="M143.63,160.84c-.998-4.628-6.152-7.339-11.954-4.901s-11.62,7.261-10.546,12.63,8.886,5.467,14.674,2.765,8.823-5.865,7.825-10.494Z" fill="#fff" stroke-width="0"/>
      <path d="M280.863,294.327c-2.699,4.822-10.062,8.051-13.402,11.557-18.807,19.744-23.751,14.151-14.189-6.435,2.546-5.482,11.233-14.817,18.948-15.222s11.708,4.623,8.643,10.1Z" fill="#fff" stroke-width="0"/>
      <path d="M281.436,459.119c1.751,4.697-6.536,5.214-16.254,8.836s-26.63,15.416-28.381,10.719c-1.751-4.697,12.105-17.981,21.823-21.603,9.717-3.622,21.062-2.649,22.813,2.048Z" fill="#fff" stroke-width="0"/>
      <path d="M107.295,327.192c-3.474,4.464-14.387-12.825-22.274-18.963-7.887-6.138-10.765-8.814-7.291-13.278,3.474-4.464,12.25-.147,20.137,5.991,7.887,6.138,12.902,21.786,9.428,26.25Z" fill="#fff" stroke-width="0"/>
      <path d="M122.198,471.22c-1.17,3.981-15.795-6.251-23.033-9.28s-18.932-4.788-17.762-8.769,11.574-5.99,21.068-3.201,20.897,17.269,19.727,21.25Z" fill="#fff" stroke-width="0"/>
      <path d="M289.894,42.367c-7.508,2.94-13.639,6.086-17.732,3.316s-1.934-7.061,1.772-10.998c6.57-6.979,22.181-8.971,26.426-6.326,14.114,8.793-.091,9.946-10.465,14.008Z" fill="#fff" stroke-width="0"/>
      <path d="M69.765,37.561c.247,3.843,8.967,7.914,12.886,8.678,5.747,1.121,12.702-3.957,9.806-10.561s-9.217-5.58-12.555-5.405-10.483,1.909-10.137,7.287Z" fill="#fff" stroke-width="0"/>
      <path d="M243.83,256.519c1.918,6.411,25.49-3.561,38.006-7.306,12.516-3.745,15.816-10.567,14.087-17.031-1.068-3.993-1.391-14.808-5.069-8.404-5.858,10.201-14.911,14.666-18.725,16.893-11.974,6.993-30.217,9.437-28.299,15.848Z" fill="#fff" stroke-width="0"/>
      <path d="M100.702,250.953c-2.123,3.3-12.607.202-20.174-4.665-7.567-4.867-13.623-24.116-11.5-27.417s7.155,4.755,14.31,13.26,19.487,15.521,17.364,18.822Z" fill="#fff" stroke-width="0"/>
      <path d="M60.199,106.262c.867-4.167-1.387-8.16-5.033-8.918s-7.305,2.005-8.171,6.172,1.883,23.259,5.529,24.017,6.809-17.104,7.675-21.271Z" fill="#fff" stroke-width="0"/>
      <path d="M108.25,30.65c.256,4.877,4.929,6.153,9.805,5.897,2.89-.151,7.795-4.696,16.14-8.04s6.861-5.755,6.757-7.742c-.167-3.181-8.535.311-15.439.809-3.68.265-6.687-2.776-8.383-2.687-2.956.155-13.896,2.336-8.97,4.453,4.206,1.807-.01,5.389.091,7.31Z" fill="#fff" stroke-width="0"/>
      <path d="M255.727,31.75c-.124,1.822-1.259,4.766-5.815,5.005-4.556.239-7.668-4.45-12.688-6.638-4.182-1.823,6.643-8.889,11.198-9.127,3.152-.165,15.655-2.002,7.509,3.986-4.128,3.034-.081,4.953-.205,6.775Z" fill="#fff" stroke-width="0"/>
      <path d="M321.776,104.688c5.268-4.936,1.37,14.79-1.691,16.024-1.836.74-4.736,4.234-6.835-3.295-.613-2.198-2.021-5.983-3.102-8.663-2.7-6.696-7.061-13.339-4-14.573s10.691,15.132,15.627,10.507Z" fill="#fff" stroke-width="0"/>
      <path d="M257.766,378.54c-5.544,7.604,4.363,22.704,13.984,27.687,15.512,8.033,21.72,5.611,23.684,3.186,4.709-5.817-10.249-4.017-20.775-12.327s-15.732-20.139-16.893-18.546Z" fill="#fff" stroke-width="0"/>
      <circle cx="51.132" cy="411.897" r="6.006" fill="#fff" stroke-width="0"/>
      <circle cx="68.816" cy="406.962" r="6.006" fill="#fff" stroke-width="0"/>
      <circle cx="320.468" cy="36.737" r="6.006" fill="#fff" stroke-width="0"/>
      <path d="M233.245,267.368c0,25.709-55.59,14.149-61.632,49.209-7.644,44.365-64.764-3.39-60.275-28.704,7.022-39.606,21.348-32.022,69.661-27.808,31.837,2.777,52.246-18.405,52.246,7.303Z" fill="#bc1964" stroke-width="0"/>
    </g>
  </g>
</svg>