<?xml version="1.0" encoding="UTF-8"?>
<svg xmlns="http://www.w3.org/2000/svg" viewBox="0 0 1920 1080">
  <g id="a" data-name="Ramp structure">
    <g>
      <line x1="570.738" y1="532.141" x2="694.424" y2="581.93" fill="none" stroke="#ffc9ae" stroke-miterlimit="10" stroke-width="7"/>
      <line x1="698.89" y1="550.152" x2="566.272" y2="563.92" fill="none" stroke="#ffc9ae" stroke-miterlimit="10" stroke-width="7"/>
    </g>
    <g>
      <line x1="699.259" y1="550.204" x2="822.945" y2="599.993" fill="none" stroke="#ffc9ae" stroke-miterlimit="10" stroke-width="7"/>
      <line x1="827.412" y1="568.214" x2="694.793" y2="581.982" fill="none" stroke="#ffc9ae" stroke-miterlimit="10" stroke-width="7"/>
    </g>
    <g>
      <line x1="827.78" y1="568.266" x2="951.467" y2="618.055" fill="none" stroke="#ffc9ae" stroke-miterlimit="10" stroke-width="7"/>
      <line x1="955.933" y1="586.277" x2="823.314" y2="600.045" fill="none" stroke="#ffc9ae" stroke-miterlimit="10" stroke-width="7"/>
    </g>
    <g>
      <line x1="168.698" y1="476.121" x2="295.689" y2="525.91" fill="none" stroke="#ffc9ae" stroke-miterlimit="10" stroke-width="7"/>
      <line x1="300.275" y1="494.131" x2="164.112" y2="507.899" fill="none" stroke="#ffc9ae" stroke-miterlimit="10" stroke-width="7"/>
    </g>
    <g>
      <line x1="300.653" y1="494.183" x2="424.34" y2="543.972" fill="none" stroke="#ffc9ae" stroke-miterlimit="10" stroke-width="7"/>
      <line x1="428.806" y1="512.194" x2="296.187" y2="525.962" fill="none" stroke="#ffc9ae" stroke-miterlimit="10" stroke-width="7"/>
    </g>
    <g>
      <line x1="-1.473" y1="478.162" x2="23.563" y2="487.647" fill="none" stroke="#ffc9ae" stroke-miterlimit="10" stroke-width="7"/>
      <line x1="28.029" y1="455.868" x2="-1.356" y2="458.778" fill="none" stroke="#ffc9ae" stroke-miterlimit="10" stroke-width="7"/>
    </g>
    <g>
      <line x1="429.174" y1="512.246" x2="552.861" y2="562.035" fill="none" stroke="#ffc9ae" stroke-miterlimit="10" stroke-width="7"/>
      <line x1="557.327" y1="530.256" x2="424.708" y2="544.024" fill="none" stroke="#ffc9ae" stroke-miterlimit="10" stroke-width="7"/>
    </g>
    <g>
      <line x1="26.939" y1="455.71" x2="151.616" y2="505.499" fill="none" stroke="#ffc9ae" stroke-miterlimit="10" stroke-width="7"/>
      <line x1="156.118" y1="473.721" x2="22.437" y2="487.488" fill="none" stroke="#ffc9ae" stroke-miterlimit="10" stroke-width="7"/>
    </g>
    <g>
      <line x1="968.847" y1="588.324" x2="1092.534" y2="638.113" fill="none" stroke="#ffc9ae" stroke-miterlimit="10" stroke-width="7"/>
      <line x1="1097" y1="606.334" x2="964.381" y2="620.102" fill="none" stroke="#ffc9ae" stroke-miterlimit="10" stroke-width="7"/>
    </g>
    <g>
      <line x1="1096.693" y1="606.291" x2="1223.828" y2="656.565" fill="none" stroke="#ffc9ae" stroke-miterlimit="10" stroke-width="7"/>
      <line x1="1228.294" y1="624.787" x2="1092.227" y2="638.07" fill="none" stroke="#ffc9ae" stroke-miterlimit="10" stroke-width="7"/>
    </g>
    <g>
      <line x1="1228.06" y1="624.522" x2="1351.746" y2="674.311" fill="none" stroke="#ffc9ae" stroke-miterlimit="10" stroke-width="7"/>
      <line x1="1356.212" y1="642.532" x2="1223.593" y2="656.3" fill="none" stroke="#ffc9ae" stroke-miterlimit="10" stroke-width="7"/>
    </g>
    <g>
      <line x1="1370.69" y1="644.567" x2="1494.376" y2="694.356" fill="none" stroke="#ffc9ae" stroke-miterlimit="10" stroke-width="7"/>
      <line x1="1498.843" y1="662.578" x2="1366.224" y2="676.346" fill="none" stroke="#ffc9ae" stroke-miterlimit="10" stroke-width="7"/>
    </g>
    <g>
      <line x1="1495.587" y1="661.171" x2="1591.872" y2="708.058" fill="none" stroke="#ffc9ae" stroke-miterlimit="10" stroke-width="7"/>
      <line x1="1596.338" y1="676.28" x2="1491.121" y2="692.949" fill="none" stroke="#ffc9ae" stroke-miterlimit="10" stroke-width="7"/>
    </g>
  </g>
  <g id="b" data-name="Ramp">
    <g>
      <rect x="-11.098" y="551.653" width="1641.549" height="14" transform="translate(85.629 -107.248) rotate(8)" fill="#fff" stroke-width="0"/>
      <rect x="-17.513" y="597.295" width="1641.549" height="14" transform="translate(91.919 -105.911) rotate(8)" fill="#fff" stroke-width="0"/>
      <path d="M1619.218,679.655c.752,0,1.516.054,2.271.16,4.244.596,8.002,2.81,10.581,6.233,2.579,3.423,3.671,7.645,3.075,11.89-1.107,7.876-7.922,13.816-15.851,13.816-.752,0-1.516-.054-2.271-.16-8.761-1.231-14.888-9.361-13.656-18.122,1.107-7.877,7.922-13.816,15.852-13.816M1619.218,665.655c-14.741,0-27.605,10.853-29.715,25.868-2.309,16.432,9.139,31.625,25.572,33.935,1.417.199,2.828.296,4.219.296,14.741,0,27.605-10.853,29.715-25.868,2.309-16.432-9.139-31.625-25.571-33.935-1.417-.199-2.828-.296-4.219-.296h0Z" fill="#fff" stroke-width="0"/>
      <polygon points="1358.703 629.263 1350.483 687.753 1364.347 689.702 1372.567 631.211 1358.703 629.263 1358.703 629.263" fill="#fff" stroke-width="0"/>
      <polygon points="957.81 572.921 949.59 631.411 963.453 633.36 971.674 574.869 957.81 572.921 957.81 572.921" fill="#fff" stroke-width="0"/>
      <polygon points="558.382 516.785 550.162 575.276 564.026 577.224 572.246 518.733 558.382 516.785 558.382 516.785" fill="#fff" stroke-width="0"/>
      <polygon points="558.382 516.785 550.162 575.276 564.026 577.224 572.246 518.733 558.382 516.785 558.382 516.785" fill="#fff" stroke-width="0"/>
      <polygon points="157.489 460.443 149.268 518.934 163.132 520.882 171.352 462.391 157.489 460.443 157.489 460.443" fill="#fff" stroke-width="0"/>
    </g>
  </g>
</svg>